#tb 0: 1/1000
0,          0,          0,        0,      432, 9535aaa2ea26fbdc16e7fe9cba3fc9b4
0,         33,         33,        0,      432, 7f6e7ca33c0b27ff052dc2ab6721e37d
0,         66,         66,        0,      432, d37e3f169457a9c7f2a197353e39d3d6
0,        100,        100,        0,      432, f26d7d81dd81d051680ea2485e812705
0,        133,        133,        0,      432, 704b01955ced6d101b9e9315d3327f28
0,        166,        166,        0,      432, 30d46d6a0f6be383dede451cacf465f4
0,        200,        200,        0,      432, 83c7ed04f0af61ec665041967cbce05d
0,        233,        233,        0,      432, 152daf37dd37607886c50dd4c7796357
0,        266,        266,        0,      432, 609d807351ba74b1c432e3d0516add91
0,        300,        300,        0,      432, 67953f0c735984232cb6782217cdcdf6
